HIERARCHY
ROOT hip
{
	OFFSET 0.000000 0.000000 0.000000 
	CHANNELS 6 Xposition Yposition Zposition Xrotation Zrotation Yrotation
	JOINT abdomen
	{
		OFFSET 0.000000 3.402643 0.000000 
		CHANNELS 3 Xrotation Zrotation Yrotation
		JOINT chest
		{
			OFFSET 0.000000 8.438565 -0.680529 
			CHANNELS 3 Xrotation Zrotation Yrotation
			JOINT neck
			{
				OFFSET 0.000000 10.207942 -0.272212 
				CHANNELS 3 Xrotation Zrotation Yrotation
				JOINT head
				{
					OFFSET 0.000000 3.130431 0.000000 
					CHANNELS 3 Xrotation Zrotation Yrotation
					End Site
					{
						OFFSET 0.000000 3.130435 0.000000 
					}
				}
			}
			JOINT lCollar
			{
				OFFSET 3.470700 6.669187 -0.816635 
				CHANNELS 3 Yrotation Zrotation Xrotation
				JOINT lShldr
				{
					OFFSET 3.198488 0.000000 0.000000 
					CHANNELS 3 Zrotation Yrotation Xrotation
					JOINT lForeArm
					{
						OFFSET 10.139888 0.000000 0.000000 
						CHANNELS 3 Yrotation Zrotation Xrotation
						JOINT lHand
						{
							OFFSET 8.370511 0.000000 0.000000 
							CHANNELS 3 Zrotation Yrotation Xrotation
							End Site
							{
								OFFSET 4.083176 0.000000 0.000000 
							}
						}
					}
				}
			}
			JOINT rCollar
			{
				OFFSET -3.470700 6.669187 -0.816635 
				CHANNELS 3 Yrotation Zrotation Xrotation
				JOINT rShldr
				{
					OFFSET -3.198488 0.000000 0.000000 
					CHANNELS 3 Zrotation Yrotation Xrotation
					JOINT rForeArm
					{
						OFFSET -10.139888 0.000000 0.000000 
						CHANNELS 3 Yrotation Zrotation Xrotation
						JOINT rHand
						{
							OFFSET -8.370511 0.000000 0.000000 
							CHANNELS 3 Zrotation Yrotation Xrotation
							End Site
							{
								OFFSET -4.083176 0.000000 0.000000 
							}
						}
					}
				}
			}
		}
	}
	JOINT lThigh
	{
		OFFSET 5.308129 -1.633274 1.361059 
		CHANNELS 3 Xrotation Zrotation Yrotation
		JOINT lShin
		{
			OFFSET -2.041588 -20.007561 0.000000 
			CHANNELS 3 Xrotation Zrotation Yrotation
			JOINT lFoot
			{
				OFFSET 0.000000 -19.190928 -1.224953 
				CHANNELS 3 Xrotation Yrotation Zrotation
				End Site
				{
					OFFSET 0.000000 -2.449906 4.627600 
				}
			}
		}
	}
	JOINT rThigh
	{
		OFFSET -5.308129 -1.633274 1.361059 
		CHANNELS 3 Xrotation Zrotation Yrotation
		JOINT rShin
		{
			OFFSET 2.041588 -20.007561 0.000000 
			CHANNELS 3 Xrotation Zrotation Yrotation
			JOINT rFoot
			{
				OFFSET 0.000000 -19.190928 -1.224953 
				CHANNELS 3 Xrotation Yrotation Zrotation
				End Site
				{
					OFFSET 0.000000 -2.449906 4.627600 
				}
			}
		}
	}
}
MOTION
Frames: 16
Frame Time: 0.033333
-46.477196 46.141735 -50.924103 1.973436 1.610373 73.336983 0.000000 0.000000 0.000000 1.301414 3.612352 0.541447 -8.603516 0.000000 0.000000 14.297362 -0.748244 15.892077 -2.957607 -0.090307 -0.002318 -75.066452 9.099489 -5.113029 -66.012421 -44.351501 -8.887382 25.341002 -24.918222 -3.346794 2.957607 0.090307 -0.002334 73.384445 5.456235 -2.098628 64.492912 25.734419 1.212786 -29.142437 22.016779 12.678458 -4.745637 12.878743 6.542124 7.831975 -5.093572 3.305699 2.053858 -2.749320 -12.061987 11.576292 -10.983578 -19.779966 4.361389 4.397489 -1.101889 -11.650689 -5.068654 4.091232 
-46.471870 46.140377 -50.924786 1.973436 1.610373 73.346748 0.000000 0.000000 0.000000 1.311213 3.622101 0.532521 -8.603516 0.000000 0.000000 14.307141 -0.757948 15.930038 -2.957607 -0.090307 -0.002318 -75.056679 9.099977 -5.112900 -66.005707 -44.360310 -8.890042 25.369663 -24.906158 -3.367158 2.957607 0.090307 -0.002334 73.384583 5.446423 -2.079122 64.485451 25.755493 1.221354 -29.159342 21.986002 12.671880 -4.734672 12.874404 6.522477 7.831980 -5.093567 3.305700 2.053687 -2.749287 -12.062020 11.604144 -10.973052 -19.779341 4.351621 4.407193 -1.112194 -11.651033 -5.069926 4.101487 
-46.468128 46.136639 -50.922409 1.973436 1.610373 73.346748 0.000000 0.000000 0.000000 1.311213 3.622101 0.532521 -8.603516 0.000000 0.000000 14.316935 -0.777369 15.976790 -2.957607 -0.090307 -0.002318 -75.038139 9.120456 -5.112697 -65.997391 -44.356709 -8.893579 25.418053 -24.892540 -3.388073 2.957607 0.090307 -0.002334 73.394768 5.427310 -2.050014 64.477325 25.761667 1.235552 -29.176247 21.955227 12.661644 -4.734533 12.863999 6.522178 7.831972 -5.093579 3.305698 2.061749 -2.747533 -12.060809 11.629876 -10.976555 -19.780075 4.322666 4.408002 -1.114425 -11.651851 -5.066915 4.103037 
-46.462467 46.130859 -50.919575 1.973436 1.610373 73.356514 0.000000 0.000000 0.000000 1.311228 3.631864 0.513214 -8.603516 0.000000 0.000000 14.326756 -0.816224 16.050880 -2.957607 -0.090307 -0.002318 -75.028862 9.130695 -5.112596 -65.980766 -44.349499 -8.887016 25.476303 -24.878141 -3.419029 2.957607 0.090307 -0.002334 73.403938 5.417862 -1.991593 64.465477 25.778381 1.251922 -29.210058 21.893671 12.641178 -4.725664 12.867393 6.522910 7.836296 -5.087077 3.305221 2.043735 -2.735517 -12.078445 11.657917 -10.966165 -19.769512 4.292394 4.396993 -1.146149 -11.645902 -5.054071 4.120798 
-46.453854 46.128025 -50.919575 1.973427 1.600613 73.375710 0.000000 0.000000 0.000000 1.321027 3.641613 0.504293 -8.603516 0.000000 0.000000 14.336565 -0.845360 16.184530 -2.957607 -0.090307 -0.002318 -75.009148 9.131708 -5.102569 -65.948059 -44.335594 -8.890450 25.575871 -24.880085 -3.490142 2.957607 0.090307 -0.002334 73.421707 5.428377 -1.923507 64.430077 25.801626 1.267799 -29.245703 21.851576 12.624352 -4.725742 12.857831 6.512828 7.829546 -5.079541 3.306458 2.034645 -2.743939 -12.061345 11.687628 -10.966257 -19.780523 4.260784 4.413831 -1.157811 -11.634338 -5.059268 4.118495 
-46.445354 46.122360 -50.919575 1.973417 1.590853 73.385139 0.000000 0.000000 0.000000 1.321041 3.651376 0.494753 -8.603516 0.000000 0.000000 14.346375 -0.874496 16.337700 -2.957607 -0.090307 -0.002318 -74.990776 9.152149 -5.113683 -65.892052 -44.334053 -8.866712 25.705957 -24.889414 -3.575938 2.957607 0.090307 -0.002334 73.439644 5.438922 -1.865185 64.393692 25.809353 1.299039 -29.300077 21.798159 12.603425 -4.716414 12.859556 6.533117 7.817920 -5.078081 3.278080 2.041859 -2.732815 -12.087783 11.702741 -10.954110 -19.769587 4.226964 4.419419 -1.189973 -11.622444 -5.063265 4.105803 
-46.436859 46.122360 -50.919575 1.983177 1.581084 73.385071 0.000000 0.000000 0.000000 1.321013 3.631849 0.513833 -8.603516 0.000000 0.000000 14.356217 -0.923063 16.459602 -2.957607 -0.090307 -0.002318 -74.952003 9.163888 -5.103427 -65.851608 -44.327827 -8.853343 25.846830 -24.907684 -3.648112 2.957607 0.090307 -0.002334 73.458069 5.439714 -1.806881 64.362350 25.836353 1.312644 -29.346460 21.764992 12.582738 -4.725266 12.856172 6.532385 7.807023 -5.077197 3.288668 2.042801 -2.735760 -12.078519 11.705770 -10.965465 -19.741507 4.205203 4.426583 -1.201086 -11.610746 -5.074237 4.123049 
-46.425415 46.119530 -50.922409 1.983159 1.561565 73.384384 0.000000 0.000000 0.000000 1.330784 3.622072 0.533755 -8.603516 0.000000 0.000000 14.356282 -0.961929 16.572866 -2.957607 -0.090307 -0.002318 -74.922012 9.155633 -5.093239 -65.780022 -44.330818 -8.819283 26.008354 -24.934111 -3.734679 2.957607 0.090307 -0.002334 73.485260 5.460499 -1.749607 64.318024 25.837000 1.330203 -29.393749 21.741556 12.565669 -4.724885 12.844942 6.541862 7.788837 -5.068333 3.271265 2.045150 -2.716196 -12.102523 11.696469 -10.975434 -19.693197 4.186652 4.457487 -1.221513 -11.607997 -5.081775 4.108258 
-46.414082 46.116695 -50.922409 1.983140 1.542045 73.373940 0.000000 0.000000 0.000000 1.311185 3.602575 0.561370 -8.603516 0.000000 0.000000 14.385616 -0.981311 16.687593 -2.957607 -0.090307 -0.002318 -74.883896 9.186954 -5.063512 -65.714729 -44.313576 -8.802949 26.173624 -24.999437 -3.811461 2.957607 0.090307 -0.002334 73.524307 5.442781 -1.701390 64.289421 25.837894 1.356962 -29.432129 21.728640 12.535450 -4.736002 12.859678 6.561813 7.773917 -5.055028 3.262948 2.044939 -2.738354 -12.100060 11.654362 -11.002741 -19.597549 4.184588 4.474093 -1.299220 -11.591048 -5.111684 4.115838 
-46.402637 46.119530 -50.925236 2.002660 1.522507 73.373787 0.000000 0.000000 0.000000 1.291574 3.573313 0.598542 -8.603516 0.000000 0.000000 14.405168 -0.990993 16.783928 -2.957607 -0.090307 -0.002318 -74.835182 9.199218 -5.043356 -65.732361 -44.311092 -8.845452 26.345936 -25.034784 -3.855052 2.957607 0.090307 -0.002334 73.562912 5.444658 -1.682424 64.265221 25.843163 1.375951 -29.471422 21.725456 12.495469 -4.744404 12.854609 6.580641 7.755219 -5.065358 3.264050 2.049936 -2.752957 -12.115505 11.598381 -11.053580 -19.514717 4.205722 4.495577 -1.355825 -11.587141 -5.128354 4.118167 
-46.388481 46.122360 -50.928070 2.012402 1.493219 73.363243 0.000000 0.000000 0.000000 1.252396 3.544077 0.634527 -8.603516 0.000000 0.000000 14.444254 -1.000639 16.821318 -2.957607 -0.090307 -0.002318 -74.777496 9.241379 -4.984097 -65.775360 -44.320049 -8.914338 26.600880 -25.102757 -3.914604 2.957607 0.090307 -0.002334 73.602013 5.436781 -1.663477 64.225243 25.848097 1.385706 -29.531275 21.730406 12.431885 -4.754895 12.857273 6.619844 7.750628 -5.088873 3.244236 2.042446 -2.760941 -12.097813 11.528589 -11.091511 -19.399757 4.234043 4.523925 -1.421275 -11.578674 -5.158783 4.103324 
-46.377033 46.122360 -50.925236 2.022153 1.473692 73.353043 0.000000 0.000000 0.000000 1.242598 3.534327 0.682539 -8.603516 0.000000 0.000000 14.493124 -1.019979 16.798931 -2.957607 -0.090307 -0.002318 -74.728760 9.263508 -4.934672 -65.826653 -44.332603 -8.979683 26.837992 -25.191727 -3.938661 2.957607 0.090307 -0.002334 73.632515 5.408943 -1.654192 64.217087 25.854240 1.399918 -29.633162 21.761349 12.341713 -4.754364 12.865164 6.649482 7.738796 -5.106799 3.253861 2.045207 -2.776263 -12.082521 11.477460 -11.138377 -19.307049 4.257548 4.556326 -1.467903 -11.569164 -5.195016 4.096475 
-46.365707 46.122360 -50.925236 2.031905 1.454164 73.342834 0.000000 0.000000 0.000000 1.223004 3.514827 0.719979 -8.603516 0.000000 0.000000 14.512695 -1.039371 16.757505 -2.957607 -0.090307 -0.002318 -74.680168 9.295465 -4.865746 -65.870697 -44.353374 -9.044792 27.145052 -25.284889 -3.970067 2.957607 0.090307 -0.002334 73.671951 5.401123 -1.653849 64.193161 25.860052 1.404897 -29.743954 21.781765 12.222036 -4.765254 12.879057 6.679209 7.738602 -5.106677 3.244118 2.030688 -2.795054 -12.100676 11.418004 -11.167005 -19.190693 4.265353 4.563868 -1.545009 -11.554528 -5.210712 4.088687 
-46.354259 46.119530 -50.919575 2.041656 1.434636 73.322853 0.000000 0.000000 0.000000 1.222991 3.505063 0.758832 -8.603516 0.000000 0.000000 14.522463 -1.039352 16.737797 -2.957607 -0.090307 -0.002318 -74.620422 9.318341 -4.747836 -65.891441 -44.364834 -9.129307 27.609457 -25.463467 -4.013498 2.957607 0.090307 -0.002334 73.730034 5.403970 -1.636077 64.149345 25.861671 1.407166 -29.944048 21.804718 12.057671 -4.773347 12.882702 6.717887 7.749516 -5.107601 3.233524 2.013841 -2.817703 -12.078429 11.385581 -11.210805 -19.076988 4.284183 4.574584 -1.621295 -11.540290 -5.230150 4.101641 
-46.342926 46.116695 -50.913910 2.051407 1.415108 73.302864 0.000000 0.000000 0.000000 1.213207 3.505076 0.797297 -8.603516 0.000000 0.000000 14.502964 -1.058817 16.697079 -2.957607 -0.090307 -0.002318 -74.560150 9.341327 -4.599044 -65.898186 -44.393353 -9.209408 28.176239 -25.672941 -4.078709 2.957607 0.090307 -0.002334 73.788124 5.406816 -1.617381 64.097313 25.855562 1.405446 -30.223600 21.830992 11.865924 -4.783756 12.894917 6.767162 7.745173 -5.114035 3.233144 2.013740 -2.833428 -12.094319 11.335864 -11.229788 -18.989079 4.292110 4.581665 -1.678898 -11.538427 -5.234135 4.088596 
-46.325821 46.119530 -50.905415 2.080670 1.366286 73.262741 0.000000 0.000000 0.000000 1.213220 3.514839 0.826802 -8.603516 0.000000 0.000000 14.454185 -1.088054 16.685225 -2.957607 -0.090307 -0.002318 -74.489746 9.364862 -4.432169 -65.897179 -44.429611 -9.279505 28.851377 -25.873533 -4.165711 2.957607 0.090307 -0.002334 73.843559 5.448565 -1.559547 64.017792 25.852388 1.391419 -30.601303 21.849226 11.639195 -4.814446 12.909667 6.815779 7.789173 -5.137156 3.248260 1.975807 -2.847581 -12.081209 11.305988 -11.229584 -18.968084 4.264193 4.593501 -1.661459 -11.564707 -5.251366 4.089760 
